<?xml version="1.0" encoding="utf-8"?>
<!-- Generator: Adobe Illustrator 19.2.1, SVG Export Plug-In . SVG Version: 6.00 Build 0)  -->
<svg version="1.1" id="main" xmlns="http://www.w3.org/2000/svg" xmlns:xlink="http://www.w3.org/1999/xlink" x="0px" y="0px"
	 viewBox="0 0 50 50" style="enable-background:new 0 0 50 50;" xml:space="preserve">
<style type="text/css">
	.st0{fill:#282828;}
</style>
<path class="st0" d="M34.1,38.6L19.3,23.7l15-15.1l0,0c0.5-0.5,0.8-1.2,0.8-2c0-1.6-1.3-2.8-2.8-2.8c-0.8,0-1.5,0.3-2,0.8l0,0
	l-17,17l0,0c-0.5,0.5-0.9,1.2-0.9,2l0,0l0,0c0,0.8,0.3,1.5,0.9,2l0,0l17,17l0,0c0.5,0.5,1.2,0.8,2,0.8c1.6,0,2.8-1.3,2.8-2.8
	C35.1,39.9,34.7,39.1,34.1,38.6"/>
</svg>
