<?xml version="1.0" encoding="utf-8"?>
<!-- Generator: Adobe Illustrator 19.2.1, SVG Export Plug-In . SVG Version: 6.00 Build 0)  -->
<svg version="1.1" id="main" xmlns="http://www.w3.org/2000/svg" xmlns:xlink="http://www.w3.org/1999/xlink" x="0px" y="0px"
	 viewBox="0 0 50 50" style="enable-background:new 0 0 50 50;" xml:space="preserve">
<style type="text/css">
	.st0{clip-path:url(#SVGID_2_);}
	.st1{fill:#282828;}
</style>
<g>
	<g>
		<defs>
			<circle id="SVGID_1_" cx="25" cy="25" r="23.1"/>
		</defs>
		<clipPath id="SVGID_2_">
			<use xlink:href="#SVGID_1_"  style="overflow:visible;"/>
		</clipPath>
		<g class="st0">
			<path class="st1" d="M41.9,19.3h-2.6c-0.2,0-0.4,0.1-0.5,0.2L38.2,20c-0.9-2.2-2.3-4.3-4.1-6.5c-1-1.2-2.4-1.9-4-1.9H19.8
				c-1.5,0-3,0.7-4,1.9c-1.9,2.3-3.2,4.4-4.1,6.5l-0.5-0.5c-0.1-0.1-0.3-0.2-0.5-0.2H8.1c-0.4,0-0.8,0.3-0.8,0.8v1.8
				c0,0.4,0.3,0.7,0.7,0.8l2.7,0.2c-0.4,1.2-0.7,2.9-0.7,5.4c0,2.1,0.4,3.6,1.2,4.5v4.1c0,0.4,0.3,0.6,0.6,0.6h2.9
				c0.4,0,0.6-0.3,0.6-0.6v-2.6h19.2v2.6c0,0.4,0.3,0.6,0.6,0.6H38c0.4,0,0.6-0.3,0.6-0.6v-4.1c0.7-0.9,1.2-2.3,1.2-4.5
				c0-2.5-0.3-4.2-0.7-5.4l2.7-0.2c0.4,0,0.7-0.4,0.7-0.8v-1.8C42.7,19.6,42.3,19.3,41.9,19.3z M18,15.3c0.4-0.5,1.1-0.8,1.8-0.8
				h10.4c0.7,0,1.3,0.3,1.8,0.8c1.3,1.5,2.3,3,3,4.5H15C15.7,18.4,16.7,16.9,18,15.3z M15.9,31.1c-1.5,0-2.7-0.5-2.7-1.6
				c0-1.2,0.4-2.1,1.9-2.1c1.5,0,3.4,0.9,3.4,2.1S17.3,31.1,15.9,31.1z M27.8,30.8h-5.6c-0.8,0-1.5-0.7-1.5-1.5
				c0-0.2,0.2-0.4,0.4-0.4h7.8c0.2,0,0.4,0.2,0.4,0.4C29.3,30.1,28.6,30.8,27.8,30.8z M34.1,31.1c-1.5,0-2.7-0.5-2.7-1.6
				c0-1.2,1.9-2.1,3.4-2.1s1.9,0.9,1.9,2.1S35.6,31.1,34.1,31.1z"/>
		</g>
	</g>
</g>
</svg>
