<?xml version="1.0" encoding="utf-8"?>
<!-- Generator: Adobe Illustrator 19.2.1, SVG Export Plug-In . SVG Version: 6.00 Build 0)  -->
<svg version="1.1" id="main" xmlns="http://www.w3.org/2000/svg" xmlns:xlink="http://www.w3.org/1999/xlink" x="0px" y="0px"
	 viewBox="0 0 50 50" style="enable-background:new 0 0 50 50;" xml:space="preserve">
<style type="text/css">
	.st0{clip-path:url(#SVGID_2_);}
	.st1{fill:#282828;}
	.st2{fill:none;stroke:#282828;stroke-miterlimit:10;}
</style>
<g>
	<g>
		<defs>
			<circle id="SVGID_1_" cx="24.8" cy="25" r="22.8"/>
		</defs>
		<clipPath id="SVGID_2_">
			<use xlink:href="#SVGID_1_"  style="overflow:visible;"/>
		</clipPath>
		<g class="st0">
			<path class="st1" d="M46.1,48.4H3.5V47c0-6.6,12-11.8,15.8-12.6c0.1-0.2,0.1-0.6,0.2-1c-0.8-0.9-2.6-3.2-3.3-6.1
				c-0.7-0.4-1.3-1.2-1.7-2.2c-0.5-1.5-0.6-3.5,0.4-4.8c-0.2-1.9-0.7-6.6,2.2-9.8c1.7-1.9,4.3-2.9,7.8-2.9c3.4,0,6,1,7.8,2.9
				c2.8,3.2,2.4,7.9,2.2,9.8c1,1.4,1,3.4,0.4,4.8c-0.4,1-1,1.8-1.7,2.2c-0.7,2.9-2.5,5.1-3.3,6.1c0,0.4,0.1,0.8,0.2,1
				c3.7,0.8,15.8,6,15.8,12.6V48.4z"/>
		</g>
	</g>
	<circle class="st2" cx="25" cy="25" r="22.8"/>
</g>
</svg>
