<?xml version="1.0" encoding="utf-8"?>
<!-- Generator: Adobe Illustrator 19.2.1, SVG Export Plug-In . SVG Version: 6.00 Build 0)  -->
<svg version="1.1" id="main" xmlns="http://www.w3.org/2000/svg" xmlns:xlink="http://www.w3.org/1999/xlink" x="0px" y="0px"
	 viewBox="0 0 50 50" style="enable-background:new 0 0 50 50;" xml:space="preserve">
<style type="text/css">
	.st0{fill:none;stroke:#282828;stroke-miterlimit:10;}
	.st1{clip-path:url(#SVGID_2_);}
	.st2{fill:#282828;}
</style>
<circle class="st0" cx="25" cy="25" r="22.8"/>
<g>
	<defs>
		<circle id="SVGID_1_" cx="25" cy="25" r="23.1"/>
	</defs>
	<clipPath id="SVGID_2_">
		<use xlink:href="#SVGID_1_"  style="overflow:visible;"/>
	</clipPath>
	<g class="st1">
		<g>
			<g>
				<path class="st2" d="M39.8,22.7L25.6,10.3c-0.4-0.3-0.9-0.3-1.2,0l-5.1,4.4v-1.8c0-1-0.8-1.9-1.9-1.9s-1.9,0.8-1.9,1.9V18
					l-5.4,4.6C9.8,23,9.7,23.6,10.1,24c0.3,0.4,0.9,0.4,1.3,0.1L25,12.3l13.6,11.8c0.2,0.2,0.4,0.2,0.6,0.2c0.3,0,0.5-0.1,0.7-0.3
					C40.3,23.6,40.2,23,39.8,22.7z"/>
				<path class="st2" d="M26.2,17.2c-0.3-0.3-0.8-0.4-1.2-0.4c-0.4,0-0.9,0.1-1.2,0.4l-9.5,7.8c-0.4,0.4-0.7,0.9-0.7,1.5v9.3
					c0,1,0.8,1.9,1.9,1.9h5.7v-9.5h7.6v9.5h5.7c1,0,1.9-0.8,1.9-1.9v-9.3c0-0.6-0.3-1.1-0.7-1.5L26.2,17.2z"/>
			</g>
		</g>
	</g>
</g>
</svg>
