<?xml version="1.0" encoding="utf-8"?>
<!-- Generator: Adobe Illustrator 19.2.1, SVG Export Plug-In . SVG Version: 6.00 Build 0)  -->
<svg version="1.1" id="main" xmlns="http://www.w3.org/2000/svg" xmlns:xlink="http://www.w3.org/1999/xlink" x="0px" y="0px"
	 viewBox="0 0 50 50" style="enable-background:new 0 0 50 50;" xml:space="preserve">
<style type="text/css">
	.st0{fill:none;stroke:#282828;stroke-miterlimit:10;}
	.st1{clip-path:url(#SVGID_2_);}
	.st2{fill:#282828;}
</style>
<g>
	<circle class="st0" cx="25" cy="25" r="22.8"/>
	<g>
		<defs>
			<circle id="SVGID_1_" cx="25" cy="25" r="22.8"/>
		</defs>
		<clipPath id="SVGID_2_">
			<use xlink:href="#SVGID_1_"  style="overflow:visible;"/>
		</clipPath>
		<g class="st1">
			<path class="st2" d="M37,12.2h-6.7L30,11c-0.1-0.4-0.5-0.7-0.9-0.7h-7.6c-0.4,0-0.8,0.3-0.9,0.7l-0.3,1.2h-6.7
				c-2.5,0-4.5,2-4.5,4.5V49c0,2.5,2,4.5,4.5,4.5H37c2.5,0,4.5-2,4.5-4.5V16.7C41.5,14.2,39.5,12.2,37,12.2z M38.6,49
				c0,0.9-0.7,1.5-1.5,1.5H13.6c-0.9,0-1.5-0.7-1.5-1.5V16.7c0-0.9,0.7-1.5,1.5-1.5h6.1l-0.2,0.7c-0.1,0.3,0,0.6,0.2,0.8
				c0.2,0.2,0.4,0.4,0.7,0.4h9.7c0.3,0,0.6-0.1,0.7-0.4c0.2-0.2,0.2-0.5,0.2-0.8l-0.2-0.7H37c0.9,0,1.5,0.7,1.5,1.5V49z"/>
			<path class="st2" d="M19.4,27.6h4l-0.9-0.6c-1.3-0.9-1.7-2.7-0.8-4.1c0.9-1.3,2.7-1.7,4.1-0.8l0.2,0.1v-1.1
				c0-0.7-0.6-1.3-1.3-1.3h-5.2c-0.7,0-1.3,0.6-1.3,1.3v5.2C18.1,27,18.7,27.6,19.4,27.6z"/>
			<path class="st2" d="M31.5,20.4L27,24.7l-2.1-1.4c-0.7-0.5-1.6-0.3-2,0.4c-0.5,0.7-0.3,1.6,0.4,2l3.1,2.1
				c0.2,0.2,0.5,0.3,0.8,0.3c0.4,0,0.7-0.1,1-0.4l5.4-5.1c0.6-0.6,0.6-1.5,0.1-2.1C33,19.9,32.1,19.8,31.5,20.4z"/>
			<path class="st2" d="M19.4,37.6h4l-0.9-0.6c-1.3-0.9-1.7-2.7-0.8-4.1c0.9-1.3,2.7-1.7,4.1-0.8l0.2,0.1v-1.1
				c0-0.7-0.6-1.3-1.3-1.3h-5.2c-0.7,0-1.3,0.6-1.3,1.3v5.2C18.1,37,18.7,37.6,19.4,37.6z"/>
			<path class="st2" d="M31.5,30.4L27,34.7l-2.1-1.4c-0.7-0.5-1.6-0.3-2,0.4c-0.5,0.7-0.3,1.6,0.4,2l3.1,2.1
				c0.2,0.2,0.5,0.3,0.8,0.3c0.4,0,0.7-0.1,1-0.4l5.4-5.1c0.6-0.6,0.6-1.5,0.1-2.1C33,29.9,32.1,29.9,31.5,30.4z"/>
			<path class="st2" d="M24.6,39.8h-5.2c-0.7,0-1.3,0.6-1.3,1.3v5.2c0,0.7,0.6,1.3,1.3,1.3h5.2c0.7,0,1.3-0.6,1.3-1.3v-5.2
				C25.9,40.4,25.3,39.8,24.6,39.8z"/>
		</g>
	</g>
</g>
</svg>
