<?xml version="1.0" encoding="utf-8"?>
<!-- Generator: Adobe Illustrator 19.2.1, SVG Export Plug-In . SVG Version: 6.00 Build 0)  -->
<svg version="1.1" id="main" xmlns="http://www.w3.org/2000/svg" xmlns:xlink="http://www.w3.org/1999/xlink" x="0px" y="0px"
	 viewBox="0 0 50 50" style="enable-background:new 0 0 50 50;" xml:space="preserve">
<style type="text/css">
	.st0{fill:none;stroke:#282828;stroke-miterlimit:10;}
	.st1{clip-path:url(#SVGID_2_);}
	.st2{fill:#282828;}
</style>
<g>
	<circle class="st0" cx="25" cy="25" r="22.8"/>
	<g>
		<defs>
			<circle id="SVGID_1_" cx="25" cy="25.1" r="22.8"/>
		</defs>
		<clipPath id="SVGID_2_">
			<use xlink:href="#SVGID_1_"  style="overflow:visible;"/>
		</clipPath>
		<g class="st1">
			<g>
				<g>
					<g>
						<path class="st2" d="M40.8,19.1h-2.5v-2.5c0-1.4-1.1-2.5-2.5-2.5H10.9c-1.4,0-2.5,1.1-2.5,2.5v29.8c0,1.4,1.1,2.5,2.5,2.5h2.5
							v2.5c0,1.4,1.1,2.5,2.5,2.5h24.9c1.4,0,2.5-1.1,2.5-2.5V21.6C43.3,20.2,42.1,19.1,40.8,19.1z M10.9,46.5V16.6h24.9v29.8H10.9z
							 M40.8,51.5H15.9V49h19.9c1.4,0,2.5-1.1,2.5-2.5V21.6h2.5L40.8,51.5L40.8,51.5z"/>
						<path class="st2" d="M32.1,21.6H19.6c-0.7,0-1.2,0.6-1.2,1.2c0,0.7,0.6,1.2,1.2,1.2h12.4c0.7,0,1.2-0.6,1.2-1.2
							C33.3,22.2,32.7,21.6,32.1,21.6z"/>
						<path class="st2" d="M32.1,29.1H14.7c-0.7,0-1.2,0.6-1.2,1.2s0.6,1.2,1.2,1.2h17.4c0.7,0,1.2-0.6,1.2-1.2S32.7,29.1,32.1,29.1
							z"/>
						<path class="st2" d="M32.1,34.1H14.7c-0.7,0-1.2,0.6-1.2,1.2c0,0.7,0.6,1.2,1.2,1.2h17.4c0.7,0,1.2-0.6,1.2-1.2
							C33.3,34.6,32.7,34.1,32.1,34.1z"/>
						<path class="st2" d="M32.1,39H14.7c-0.7,0-1.2,0.6-1.2,1.2s0.6,1.2,1.2,1.2h17.4c0.7,0,1.2-0.6,1.2-1.2S32.7,39,32.1,39z"/>
					</g>
				</g>
			</g>
		</g>
	</g>
</g>
</svg>
