<?xml version="1.0" encoding="utf-8"?>
<!-- Generator: Adobe Illustrator 19.2.1, SVG Export Plug-In . SVG Version: 6.00 Build 0)  -->
<svg version="1.1" id="main" xmlns="http://www.w3.org/2000/svg" xmlns:xlink="http://www.w3.org/1999/xlink" x="0px" y="0px"
	 viewBox="0 0 50 50" style="enable-background:new 0 0 50 50;" xml:space="preserve">
<style type="text/css">
	.st0{fill:none;stroke:#282828;stroke-miterlimit:10;}
	.st1{clip-path:url(#SVGID_2_);fill:#282828;}
</style>
<g>
	<circle class="st0" cx="25" cy="25" r="22.8"/>
	<g>
		<defs>
			<circle id="SVGID_1_" cx="24.8" cy="25" r="22.8"/>
		</defs>
		<clipPath id="SVGID_2_">
			<use xlink:href="#SVGID_1_"  style="overflow:visible;"/>
		</clipPath>
		<path class="st1" d="M39.7,16.8l-6.2,6.2c-0.6,0.6-1.5,0.6-2,0L26.6,18c-0.6-0.6-0.6-1.5,0-2l6.2-6.2c-3.9-1.3-8.4-0.4-11.5,2.7
			c-3.2,3.2-4.1,8-2.5,12l-6.6,6.6c-3.7-1.3-7.9-0.5-10.8,2.4c-4,4-4,10.6,0,14.6c4,4,10.6,4,14.6,0c2.9-2.9,3.7-7.2,2.4-10.8
			l6.6-6.6c4,1.6,8.8,0.8,12-2.5C40.1,25.2,41,20.7,39.7,16.8z M12.8,44.9l-5.6,1.5l-4.1-4.1l1.5-5.6l5.6-1.5l4.1,4.1L12.8,44.9z"/>
	</g>
</g>
</svg>
