<?xml version="1.0" encoding="utf-8"?>
<!-- Generator: Adobe Illustrator 19.2.1, SVG Export Plug-In . SVG Version: 6.00 Build 0)  -->
<svg version="1.1" id="main" xmlns="http://www.w3.org/2000/svg" xmlns:xlink="http://www.w3.org/1999/xlink" x="0px" y="0px"
	 viewBox="0 0 50 50" style="enable-background:new 0 0 50 50;" xml:space="preserve">
<style type="text/css">
	.st0{fill:none;stroke:#282828;stroke-miterlimit:10;}
	.st1{fill:#282828;}
</style>
<g>
	<circle class="st0" cx="25" cy="25" r="22.8"/>
	<g>
		<g id="notifications-on">
			<path class="st1" d="M17.8,12.7l-2-2c-3.5,2.6-5.8,6.7-6.1,11.4h2.9C12.9,18.1,14.8,14.8,17.8,12.7z M37.4,22.1h2.9
				c-0.3-4.7-2.5-8.8-6-11.4l-2,2C35.2,14.8,37.1,18.1,37.4,22.1z M34.5,22.8c0-4.5-3.1-8.2-7.3-9.2v-1c0-1.2-1-2.2-2.2-2.2
				s-2.2,1-2.2,2.2v1c-4.2,1-7.3,4.7-7.3,9.2v8l-2.9,2.9v1.5h24.8v-1.5l-2.9-2.9V22.8z M25,39.6c0.1,0,0.4,0,0.6,0
				c1-0.1,1.8-0.9,2-1.8c0.1-0.3,0.3-0.7,0.3-1.2h-5.8C22.1,38.3,23.4,39.6,25,39.6z"/>
		</g>
	</g>
</g>
</svg>
