<?xml version="1.0" encoding="utf-8"?>
<!-- Generator: Adobe Illustrator 19.2.1, SVG Export Plug-In . SVG Version: 6.00 Build 0)  -->
<svg version="1.1" id="main" xmlns="http://www.w3.org/2000/svg" xmlns:xlink="http://www.w3.org/1999/xlink" x="0px" y="0px"
	 viewBox="0 0 50 50" style="enable-background:new 0 0 50 50;" xml:space="preserve">
<style type="text/css">
	.st0{fill:#282828;}
</style>
<path class="st0" d="M25,7.1c-9.9,0-17.9,8-17.9,17.9s8,17.9,17.9,17.9s17.9-8,17.9-17.9S34.9,7.1,25,7.1z M34,32.7l-0.8,0.8l0,0
	c-0.4,0.3-0.8,0.5-1.2,0.7c-0.4,0.2-0.8,0.3-1.2,0.3c-0.2,0-4.6,0.4-10.1-5.1c-4-4-5.5-6.9-5.1-10.1c0-0.4,0.1-0.8,0.3-1.2
	c0.2-0.4,0.4-0.8,0.7-1.2l0,0l0.8-0.8c0.6-0.6,1.6-0.6,2.2,0l2.9,2.9c0.6,0.6,0.6,1.6,0,2.2l-0.5,0.5l-1,1c0.1,0.1,0.1,0.2,0.2,0.3
	c0.5,0.9,1.2,2.2,2.6,3.6c1.3,1.3,2.6,2.1,3.6,2.6c0.1,0.1,0.2,0.1,0.3,0.2l1.5-1.5c0.6-0.6,1.6-0.6,2.2,0l2.9,2.9
	C34.7,31.1,34.6,32.1,34,32.7z"/>
</svg>
