<?xml version="1.0" encoding="utf-8"?>
<!-- Generator: Adobe Illustrator 19.2.1, SVG Export Plug-In . SVG Version: 6.00 Build 0)  -->
<svg version="1.1" id="main" xmlns="http://www.w3.org/2000/svg" xmlns:xlink="http://www.w3.org/1999/xlink" x="0px" y="0px"
	 viewBox="0 0 50 50" style="enable-background:new 0 0 50 50;" xml:space="preserve">
<style type="text/css">
</style>
<g>
	<path class="st0" d="M25,7.1c-9.9,0-17.9,8-17.9,17.9c0,9.9,8,17.9,17.9,17.9c9.9,0,17.9-8,17.9-17.9C42.9,15.1,34.9,7.1,25,7.1z
		 M25.2,35.5L25,35.8l-0.2-0.3c-0.3-0.4-7.8-9.1-7.8-13.4c0-4.4,3.6-8,8-8c4.4,0,8,3.6,8,8C33,26.4,25.6,35.1,25.2,35.5z"/>
	<path class="st0" d="M25,19.6c-1.8,0-3.3,1.5-3.3,3.3c0,1.8,1.5,3.3,3.3,3.3c1.8,0,3.3-1.5,3.3-3.3C28.3,21.1,26.8,19.6,25,19.6z
		 M25,25.6c-1.5,0-2.6-1.2-2.6-2.6c0-1.5,1.2-2.6,2.6-2.6c1.5,0,2.6,1.2,2.6,2.6C27.6,24.4,26.5,25.6,25,25.6z"/>
</g>
</svg>
