<?xml version="1.0" encoding="utf-8"?>
<!-- Generator: Adobe Illustrator 19.2.1, SVG Export Plug-In . SVG Version: 6.00 Build 0)  -->
<svg version="1.1" id="main" xmlns="http://www.w3.org/2000/svg" xmlns:xlink="http://www.w3.org/1999/xlink" x="0px" y="0px"
	 viewBox="0 0 50 50" style="enable-background:new 0 0 50 50;" xml:space="preserve">
<style type="text/css">
	.st0{fill:#282828;}
</style>
<g>
	<path class="st0" d="M25,7.1c-9.9,0-17.9,8-17.9,17.9c0,9.9,8,17.9,17.9,17.9c9.9,0,17.9-8,17.9-17.9C42.9,15.1,34.9,7.1,25,7.1z
		 M35.7,32.1c0,0.2-0.2,0.4-0.4,0.4H14.5c-0.2,0-0.4-0.2-0.4-0.4V18.9c0-0.2,0.2-0.4,0.4-0.4h20.8c0.2,0,0.4,0.2,0.4,0.4V32.1z"/>
	<path class="st0" d="M32.1,21.3c-0.2-0.2-0.4-0.2-0.6,0L25,27.8l-6.4-6.4c-0.2-0.2-0.4-0.2-0.6,0c-0.2,0.2-0.2,0.4,0,0.6l3.8,3.8
		l-3.9,3.9c-0.2,0.2-0.2,0.4,0,0.6c0.1,0.1,0.2,0.1,0.3,0.1c0.1,0,0.2,0,0.3-0.1l3.9-3.9l2.3,2.3c0.1,0.1,0.2,0.1,0.3,0.1
		c0.1,0,0.2,0,0.3-0.1l2.4-2.4l3.8,3.8c0.1,0.1,0.2,0.1,0.3,0.1c0.1,0,0.2,0,0.3-0.1c0.2-0.2,0.2-0.4,0-0.6l-3.8-3.8l3.9-3.9
		C32.3,21.7,32.3,21.4,32.1,21.3z"/>
</g>
</svg>
