<?xml version="1.0" encoding="utf-8"?>
<!-- Generator: Adobe Illustrator 19.2.1, SVG Export Plug-In . SVG Version: 6.00 Build 0)  -->
<svg version="1.1" id="main" xmlns="http://www.w3.org/2000/svg" xmlns:xlink="http://www.w3.org/1999/xlink" x="0px" y="0px"
	 viewBox="0 0 90 50" style="enable-background:new 0 0 90 50;" xml:space="preserve">
<style type="text/css">
	.st0{fill:#49A7F7;}
	.st1{fill:#EEEEEE;}
</style>
<g>
	<g>
		<path class="st0" d="M22.1,12.5l10.3,3.1v7.7c0,5-4.2,10.5-10.3,13.7c-6.1-3.2-10.3-8.7-10.3-13.7v-7.7L22.1,12.5z M22.1,35.3
			c5.2-3,8.7-7.8,8.7-12v-6.6l-8.7-2.6C22.1,14.1,22.1,35.3,22.1,35.3z"/>
	</g>
</g>
<g>
	<path class="st1" d="M21.9,11.5l-11.3,3.4v8.5c0,5.5,4.6,11.6,11.3,15.1c6.7-3.6,11.3-9.6,11.3-15.1v-8.5L21.9,11.5z M21.9,36.6
		c-5.8-3.3-9.6-8.6-9.6-13.2v-7.3l9.6-2.9V36.6z"/>
</g>
<g>
	<path class="st0" d="M44.8,18.3c0,1.2-0.4,2-1.1,2.6c-0.7,0.6-1.7,0.9-3.1,0.9h-1v3.8h-2.3V14.9h3.4c1.3,0,2.3,0.3,3,0.8
		C44.4,16.3,44.8,17.1,44.8,18.3z M39.6,20h0.7c0.7,0,1.2-0.1,1.6-0.4c0.3-0.3,0.5-0.7,0.5-1.2c0-0.5-0.1-0.9-0.4-1.2
		c-0.3-0.3-0.7-0.4-1.4-0.4h-1V20z"/>
	<path class="st0" d="M55.6,20.3c0,1.8-0.4,3.1-1.3,4.1c-0.9,1-2.1,1.4-3.8,1.4s-2.9-0.5-3.8-1.4c-0.9-1-1.3-2.3-1.3-4.1
		c0-1.8,0.4-3.1,1.3-4.1c0.9-0.9,2.1-1.4,3.8-1.4c1.6,0,2.9,0.5,3.8,1.4C55.2,17.1,55.6,18.5,55.6,20.3z M47.8,20.3
		c0,1.2,0.2,2.1,0.7,2.7c0.5,0.6,1.1,0.9,2,0.9c1.8,0,2.7-1.2,2.7-3.6c0-2.4-0.9-3.6-2.7-3.6c-0.9,0-1.6,0.3-2,0.9
		C48,18.2,47.8,19.1,47.8,20.3z"/>
	<path class="st0" d="M56.9,25.6V14.9h2.3v10.7H56.9z"/>
	<path class="st0" d="M70.5,25.6h-2.9L63,17.5h-0.1c0.1,1.4,0.1,2.5,0.1,3.1v5h-2V14.9h2.9l4.7,8h0.1c-0.1-1.4-0.1-2.4-0.1-3v-5.1h2
		V25.6z"/>
	<path class="st0" d="M76.5,25.6h-2.3v-8.8h-2.9v-1.9h8.1v1.9h-2.9V25.6z"/>
	<path class="st1" d="M37.3,35.3v-5.7h0.4v5.7H37.3z"/>
	<path class="st1" d="M43.5,35.3h-0.4l-3.4-5.1h0c0,0.6,0,1.1,0,1.4v3.7h-0.4v-5.7h0.4l3.4,5.1h0c0-0.5,0-0.9,0-1.3v-3.7h0.4V35.3z"
		/>
	<path class="st1" d="M48.3,33.8c0,0.5-0.2,0.9-0.5,1.1c-0.4,0.3-0.8,0.4-1.4,0.4c-0.7,0-1.2-0.1-1.6-0.2v-0.4
		c0.4,0.2,0.9,0.3,1.6,0.3c0.5,0,0.8-0.1,1.1-0.3c0.3-0.2,0.4-0.5,0.4-0.8c0-0.2,0-0.4-0.1-0.5c-0.1-0.1-0.2-0.3-0.4-0.4
		c-0.2-0.1-0.5-0.2-0.9-0.4c-0.6-0.2-1-0.4-1.2-0.7c-0.2-0.2-0.3-0.5-0.3-0.9c0-0.4,0.2-0.8,0.5-1c0.3-0.3,0.8-0.4,1.3-0.4
		c0.5,0,1,0.1,1.5,0.3L48,30.1c-0.5-0.2-0.9-0.3-1.4-0.3c-0.4,0-0.8,0.1-1,0.3c-0.3,0.2-0.4,0.5-0.4,0.8c0,0.2,0,0.4,0.1,0.5
		c0.1,0.1,0.2,0.3,0.4,0.4c0.2,0.1,0.5,0.2,0.9,0.4c0.4,0.2,0.8,0.3,1,0.4c0.2,0.1,0.4,0.3,0.5,0.5C48.2,33.3,48.3,33.5,48.3,33.8z"
		/>
	<path class="st1" d="M53.7,29.5v3.7c0,0.7-0.2,1.2-0.6,1.5c-0.4,0.4-0.9,0.6-1.6,0.6c-0.7,0-1.2-0.2-1.6-0.6s-0.6-0.9-0.6-1.6v-3.7
		h0.4v3.7c0,0.6,0.2,1,0.5,1.3c0.3,0.3,0.7,0.5,1.3,0.5c0.5,0,1-0.2,1.3-0.5c0.3-0.3,0.5-0.7,0.5-1.3v-3.7H53.7z"/>
	<path class="st1" d="M55.6,32.8v2.5h-0.4v-5.7h1.4c0.7,0,1.2,0.1,1.6,0.4c0.3,0.3,0.5,0.7,0.5,1.2c0,0.4-0.1,0.7-0.3,1
		c-0.2,0.3-0.5,0.5-0.9,0.6l1.6,2.6h-0.5l-1.5-2.5H55.6z M55.6,32.4h1.1c0.5,0,0.9-0.1,1.1-0.3c0.3-0.2,0.4-0.5,0.4-1
		c0-0.4-0.1-0.8-0.4-1c-0.3-0.2-0.7-0.3-1.3-0.3h-0.9V32.4z"/>
	<path class="st1" d="M62.8,33.2h-2.3l-0.8,2h-0.4l2.3-5.7h0.3l2.3,5.7h-0.5L62.8,33.2z M60.6,32.9h2l-0.8-2.1
		c-0.1-0.2-0.1-0.4-0.2-0.7c-0.1,0.3-0.1,0.5-0.2,0.7L60.6,32.9z"/>
	<path class="st1" d="M69,35.3h-0.4l-3.4-5.1h0c0,0.6,0,1.1,0,1.4v3.7h-0.4v-5.7h0.4l3.4,5.1h0c0-0.5,0-0.9,0-1.3v-3.7H69V35.3z"/>
	<path class="st1" d="M73,29.8c-0.7,0-1.3,0.2-1.7,0.7c-0.4,0.5-0.6,1.1-0.6,1.9c0,0.8,0.2,1.5,0.6,1.9c0.4,0.5,0.9,0.7,1.7,0.7
		c0.5,0,0.9-0.1,1.3-0.2v0.4c-0.4,0.1-0.9,0.2-1.4,0.2c-0.8,0-1.4-0.3-1.9-0.8c-0.5-0.5-0.7-1.2-0.7-2.2c0-0.6,0.1-1.1,0.3-1.5
		c0.2-0.4,0.5-0.8,1-1c0.4-0.2,0.9-0.4,1.4-0.4c0.6,0,1.1,0.1,1.5,0.3l-0.2,0.4C73.9,29.9,73.5,29.8,73,29.8z"/>
	<path class="st1" d="M78.7,35.3h-3.1v-5.7h3.1v0.4H76v2.2h2.6v0.4H76v2.5h2.7V35.3z"/>
</g>
</svg>
