<?xml version="1.0" encoding="utf-8"?>
<!-- Generator: Adobe Illustrator 19.2.1, SVG Export Plug-In . SVG Version: 6.00 Build 0)  -->
<svg version="1.1" id="main" xmlns="http://www.w3.org/2000/svg" xmlns:xlink="http://www.w3.org/1999/xlink" x="0px" y="0px"
	 viewBox="0 0 90 50" style="enable-background:new 0 0 90 50;" xml:space="preserve">
<style type="text/css">
	.st0{fill:#49A7F7;}
	.st1{font-family:'OpenSans-Bold';}
	.st2{font-size:15px;}
	.st3{fill:#EEEEEE;}
	.st4{font-family:'OpenSans-Light';}
	.st5{font-size:8px;}
</style>
<text transform="matrix(1 0 0 1 35.9478 25.4486)"><tspan x="0" y="0" class="st0 st1 st2">POINT </tspan><tspan x="0.5" y="9.6" class="st3 st4 st5">INSURANCE</tspan></text>
<g>
	<g>
		<path class="st0" d="M21.9,12.4l10.3,3.1v7.7c0,5-4.2,10.5-10.3,13.7c-6.1-3.2-10.3-8.7-10.3-13.7v-7.7L21.9,12.4z M21.9,35.2
			c5.2-3,8.7-7.8,8.7-12v-6.6L21.9,14V35.2z"/>
	</g>
</g>
<g>
	<path class="st3" d="M21.7,11.4l-11.3,3.4v8.5c0,5.5,4.6,11.6,11.3,15.1C28.4,34.9,33,28.9,33,23.3v-8.5L21.7,11.4z M21.7,36.5
		c-5.8-3.3-9.6-8.6-9.6-13.2v-7.3l9.6-2.9V36.5z"/>
</g>
</svg>
